HIERARCHY
ROOT Hips
{
	OFFSET 0.0000 0.0000 0.0000
	CHANNELS 6 Xposition Yposition Zposition Zrotation Xrotation Yrotation
	JOINT Ab
	{
		OFFSET -0.0000 8.0846 -0.0000
		CHANNELS 3 Zrotation Xrotation Yrotation
		JOINT Chest
		{
			OFFSET -0.0000 25.0068 -0.0000
			CHANNELS 3 Zrotation Xrotation Yrotation
			JOINT Neck
			{
				OFFSET -0.0000 25.0068 0.0000
				CHANNELS 3 Zrotation Xrotation Yrotation
				JOINT Head
				{
					OFFSET -0.0000 10.7556 0.0000
					CHANNELS 3 Zrotation Xrotation Yrotation
					End Site
					{
						OFFSET -0.0000 16.6222 0.0000
					}
				}
			}
			JOINT LeftCollar
			{
				OFFSET -0.0000 25.0068 0.0000
				CHANNELS 3 Zrotation Xrotation Yrotation
				JOINT LeftShoulder
				{
					OFFSET 19.5556 -0.0000 0.0000
					CHANNELS 3 Zrotation Xrotation Yrotation
					JOINT LeftElbow
					{
						OFFSET 27.1828 0.0000 0.0000
						CHANNELS 3 Zrotation Xrotation Yrotation
						JOINT LeftWrist
						{
							OFFSET 23.3157 0.0000 0.0000
							CHANNELS 3 Zrotation Xrotation Yrotation
							End Site
							{
								OFFSET 0.0000 -14.6667 0.0000
							}
						}
					}
				}
			}
			JOINT RightCollar
			{
				OFFSET -0.0000 25.0068 0.0000
				CHANNELS 3 Zrotation Xrotation Yrotation
				JOINT RightShoulder
				{
					OFFSET -19.5556 0.0000 0.0000
					CHANNELS 3 Zrotation Xrotation Yrotation
					JOINT RightElbow
					{
						OFFSET -27.1828 0.0000 0.0000
						CHANNELS 3 Zrotation Xrotation Yrotation
						JOINT RightWrist
						{
							OFFSET -23.3157 0.0000 0.0000
							CHANNELS 3 Zrotation Xrotation Yrotation
							End Site
							{
								OFFSET -0.0000 -14.6667 0.0000
							}
						}
					}
				}
			}
		}
	}
	JOINT LeftHip
	{
		OFFSET 11.7333 0.0000 0.0000
		CHANNELS 3 Zrotation Xrotation Yrotation
		JOINT LeftKnee
		{
			OFFSET -0.0000 -40.8688 0.0000
			CHANNELS 3 Zrotation Xrotation Yrotation
			JOINT LeftAnkle
			{
				OFFSET -0.0000 -44.4337 0.0000
				CHANNELS 3 Zrotation Xrotation Yrotation
				End Site
				{
					OFFSET -0.0000 -4.8889 16.6222
				}
			}
		}
	}
	JOINT RightHip
	{
		OFFSET -11.7333 0.0000 0.0000
		CHANNELS 3 Zrotation Xrotation Yrotation
		JOINT RightKnee
		{
			OFFSET -0.0000 -40.8688 0.0000
			CHANNELS 3 Zrotation Xrotation Yrotation
			JOINT RightAnkle
			{
				OFFSET -0.0000 -44.4337 0.0000
				CHANNELS 3 Zrotation Xrotation Yrotation
				End Site
				{
					OFFSET -0.0000 -4.8889 16.6222
				}
			}
		}
	}
}
MOTION
Frames: 8
Frame Time: 0.010000
-3.6329 88.8712 191.2648 2.4489 358.9151 177.0201 1.7945 358.2960 358.1893 358.2046 12.2190 358.3565 2.2858 344.0472 1.1931 2.5646 10.7640 0.6252 339.2345 358.6206 7.5878 301.3026 30.5160 353.8891 16.7307 354.3124 322.6473 82.2556 1.8443 342.1307 22.3281 359.3047 356.4363 59.2384 43.4304 9.6868 337.9089 354.1846 29.0381 279.0969 353.3672 19.7276 1.4965 357.0624 356.9520 359.0484 10.3616 358.4890 0.1460 352.7832 21.2221 1.7679 351.9348 358.6493 359.4608 17.2539 6.5965 357.2144 345.7154 338.2910 
-3.6818 88.8720 191.2665 2.4624 358.8645 177.0652 1.7853 358.2676 358.1837 358.2075 12.2072 358.3492 2.2914 344.1396 1.0427 2.3879 10.7397 0.4878 339.2211 358.5933 7.6157 301.3615 30.8472 353.8512 16.9120 354.2269 322.6902 82.1361 1.8407 342.3298 22.3076 359.2959 356.4101 59.2421 43.4385 9.6778 337.8279 354.1897 29.0948 279.1369 353.4132 19.7250 1.4824 357.0031 356.9779 359.0723 10.3579 358.3703 0.1672 352.7923 21.2382 1.7464 351.8903 358.6001 359.4582 17.2426 6.5537 357.2566 345.7091 338.3414 
-3.7372 88.8709 191.2580 2.4602 358.8594 177.0550 1.7636 358.2856 358.2077 358.2137 12.1939 358.3724 2.2772 344.1245 1.0010 2.3663 10.8364 0.4520 339.1972 358.6082 7.6588 301.3872 30.9436 353.8052 16.8804 354.2725 322.7626 82.1723 1.8053 342.3461 22.2848 359.3027 356.4412 59.2472 43.3277 9.6232 337.8803 354.1902 29.1733 279.1466 353.4340 19.7398 1.4409 356.9627 356.9512 359.0537 10.4398 358.4605 0.2223 352.7619 21.2122 1.7093 351.8902 358.6235 359.4567 17.2297 6.5221 357.0534 345.7542 338.3267 
-3.7888 88.8716 191.2491 2.4676 358.8544 177.0349 1.7748 358.3081 358.2156 358.1701 12.1726 358.3854 2.2785 344.1589 0.9610 2.3478 10.8537 0.4168 339.2237 358.6274 7.5902 301.2695 30.5964 353.8996 16.6948 354.3564 322.6229 82.1932 1.8778 342.0574 22.3070 359.2962 356.4229 59.1824 43.2831 9.6419 338.1351 354.2739 29.2271 278.7556 353.3985 20.6669 1.4223 356.9476 356.9522 359.0395 10.4728 358.4413 0.2654 352.7372 21.2387 1.6885 351.8901 358.6997 359.4663 17.2249 6.4786 357.3303 345.7099 338.3687 
-3.8472 88.8711 191.2332 2.4707 358.8673 177.0260 1.7648 358.3361 358.2253 358.1473 12.1594 358.3968 2.3204 344.2153 0.9035 2.2096 10.8752 0.3695 339.2395 358.6086 7.5491 301.1866 30.4637 353.9946 16.6271 354.3643 322.5351 82.2169 1.8962 341.9597 22.3008 359.2795 356.4241 59.1707 43.2865 9.6275 338.1646 354.2539 29.2750 278.7484 353.4113 20.8398 1.3849 356.9585 357.0439 359.0524 10.4965 358.3591 0.2919 352.7174 21.2433 1.6575 351.9262 358.7405 359.4664 17.1907 6.4072 357.3840 345.7138 338.4203 
-3.9077 88.8689 191.2157 2.4827 358.8925 177.0252 1.7569 358.3661 358.2299 358.1506 12.1643 358.4026 2.3469 344.2484 0.8711 2.0522 10.8900 0.3441 339.2244 358.6387 7.5407 301.1701 30.4626 354.0051 16.5127 354.4028 322.5523 82.3364 1.8623 341.9456 22.2869 359.2986 356.4425 59.1663 43.2197 9.6079 338.2101 354.2451 29.2988 278.7598 353.3932 20.8960 1.3616 356.9848 357.0384 359.0450 10.5198 358.2971 0.3374 352.6997 21.2921 1.6268 351.9719 358.7806 359.4811 17.1670 6.3513 357.2076 345.7511 338.3937 
-3.9787 88.8641 191.1989 2.4857 358.9079 177.0023 1.7809 358.3971 358.2316 358.0952 12.1430 358.4088 2.2806 344.3274 0.7893 2.0364 10.8952 0.2727 339.2353 358.6170 7.5420 301.1057 30.4138 354.0682 16.5093 354.3796 322.4408 82.2544 1.9063 341.8905 22.2823 359.3242 356.4864 59.1596 43.1650 9.5781 338.2057 354.2463 29.3464 278.8205 353.4239 20.9244 1.3267 357.0066 357.0125 359.0177 10.5269 358.3271 0.3643 352.6799 21.3047 1.5855 351.9935 358.8148 359.4776 17.1662 6.3496 357.2027 345.7475 338.3842 
-4.0463 88.8618 191.1727 2.4965 358.9432 176.9850 1.7680 358.4194 358.2484 358.0854 12.1683 358.4290 2.2508 344.3407 0.7393 2.0055 10.9513 0.2268 339.2421 358.6347 7.5169 301.0018 30.2008 354.1096 16.3165 354.4665 322.4266 82.4172 1.8588 341.7034 22.2602 359.3069 356.5086 59.1488 43.1902 9.5641 338.1088 354.2039 29.3898 278.9112 353.4383 20.8736 1.2943 357.0667 357.0450 359.0152 10.5187 358.2554 0.4679 352.6825 21.3650 1.5561 352.0451 358.8644 359.4774 17.1563 6.3036 357.4734 345.7005 338.4511 
